PathFileType	4	(X/Y/Z)	C:\Users\Basilio\Documents\Thesis Gigler\squatting_fais\c3dfiles\075\SLS_front_pre4\markers_experimental.trc
DataRate	CameraRate	NumFrames	NumMarkers	Units	OrigDataRate	OrigDataStartFrame	OrigNumFrames
200.000000	200.000000	4	61	mm	200.000000	667	1334
Frame#	Time	FHD			LBHD			RBHD			C7			T10			CLAV			LSHO			LUUPA			LMUPA			LDUPA			LLEP			LMEP			LRAD			LUL			LRFIN			RSHO			RUPA1			RMUPA			RDUPA			RLEP			RMEP			RRAD			RUL			RUFIN			USACR			LSACR			RSACR			LTHI1			LTHI2			LTHI3			LTHI4			LLFC			LMFC			LTIB1			LTIB2			LTIB3			LTIB4			LLMAL			LMMAL			LHEE			LMT1			LMT2			LMT5			RTHI			RTHI2			RTHI3			RTHI4			RLFC			RMFC			RTIB1			RTIB2			RTIB3			RTIB4			RLMAL			RMMAL			RHEE			RMT1			RMT2			RMT5			RASI			LASI			
		X1	Y1	Z1	X2	Y2	Z2	X3	Y3	Z3	X4	Y4	Z4	X5	Y5	Z5	X6	Y6	Z6	X7	Y7	Z7	X8	Y8	Z8	X9	Y9	Z9	X10	Y10	Z10	X11	Y11	Z11	X12	Y12	Z12	X13	Y13	Z13	X14	Y14	Z14	X15	Y15	Z15	X16	Y16	Z16	X17	Y17	Z17	X18	Y18	Z18	X19	Y19	Z19	X20	Y20	Z20	X21	Y21	Z21	X22	Y22	Z22	X23	Y23	Z23	X24	Y24	Z24	X25	Y25	Z25	X26	Y26	Z26	X27	Y27	Z27	X28	Y28	Z28	X29	Y29	Z29	X30	Y30	Z30	X31	Y31	Z31	X32	Y32	Z32	X33	Y33	Z33	X34	Y34	Z34	X35	Y35	Z35	X36	Y36	Z36	X37	Y37	Z37	X38	Y38	Z38	X39	Y39	Z39	X40	Y40	Z40	X41	Y41	Z41	X42	Y42	Z42	X43	Y43	Z43	X44	Y44	Z44	X45	Y45	Z45	X46	Y46	Z46	X47	Y47	Z47	X48	Y48	Z48	X49	Y49	Z49	X50	Y50	Z50	X51	Y51	Z51	X52	Y52	Z52	X53	Y53	Z53	X54	Y54	Z54	X55	Y55	Z55	X56	Y56	Z56	X57	Y57	Z57	X58	Y58	Z58	X59	Y59	Z59	X60	Y60	Z60	X61	Y61	Z61	

668	3.335	-214.6892547607422	1434.575805664063	-796.352722167969	-372.3813171386719	1333.744873046875	-867.0085449218752	-333.3211975097657	1369.33935546875	-714.2566528320314	-423.3403320312501	1242.999877929688	-804.7008056640627	-569.5823364257814	957.4663696289065	-790.7935791015627	-307.3577575683594	1144.789184570313	-794.5881347656252	-314.4198608398438	1206.26904296875	-922.789978027344	-165.5173950195313	1131.822875976563	-1012.091064453125	-140.1163482666016	1147.9384765625	-972.8623046875002	-98.07659149169925	1118.752685546875	-1004.344177246094	-18.7617416381836	1102.69873046875	-988.7664184570315	-41.51987838745118	1033.100708007813	-944.1617431640627	nan	nan	nan	219.8524169921876	1111.620483398438	-884.7752075195315	221.8271942138672	1134.168701171875	-780.8668212890627	-331.2043457031251	1208.842529296875	-669.0753784179689	-198.9117889404297	1146.618774414063	-556.4772949218751	-165.3444366455078	1155.851196289063	-591.0871582031251	-130.2988739013672	1130.848876953125	-547.9226684570314	-60.68625259399415	1118.994995117188	-552.9829711914064	-61.18881607055665	1043.590209960938	-570.5468750000001	156.374496459961	1119.840576171875	-728.5776367187501	177.0462341308594	1128.813842773438	-653.9869995117189	233.8893585205079	1153.322631835938	-751.4926757812501	-603.5024414062501	829.2241821289065	-802.2454833984377	-613.4006958007814	799.7641601562502	-830.2642822265627	-613.4582519531251	796.2910156250002	-775.2964477539065	-356.0953063964844	626.0360717773439	-1024.294189453125	-273.0174865722657	610.2203369140626	-1025.954956054688	-252.3231353759766	647.1224365234376	-999.8230590820315	-243.8934478759766	558.2078247070314	-1026.402221679688	-167.7196197509766	481.7251892089845	-1018.788452148438	-129.625473022461	494.5350341796876	-897.0891723632815	-52.09810638427736	413.4793395996095	-988.8528442382815	-83.97859191894533	348.2930603027344	-1035.270874023438	-45.18980407714844	363.4676818847657	-1016.785522460938	-7.987173557281496	292.7323608398438	-985.4208984375002	-2.066518545150757	129.9258880615235	-1001.946166992188	15.00140476226807	161.6070709228516	-920.405456542969	-45.11272811889649	86.26235961914064	-957.0772094726565	155.2072143554688	135.7502899169922	-915.0614013671877	164.4175262451172	131.7285308837891	-964.0281982421877	137.9451599121094	91.34352111816408	-1009.663879394531	-411.0934448242189	591.8953857421876	-623.0870971679689	-344.7542419433594	588.0935668945314	-623.8075561523439	-328.4846801757813	616.8628540039064	-632.8655395507814	-299.0463256835938	517.8065185546876	-630.2758789062501	-206.0596771240235	414.3458251953126	-669.4052124023439	-180.1497497558594	435.0382080078126	-790.8138427734377	-196.3167877197266	288.9969177246094	-765.4636230468751	-273.1438598632813	228.6476745605469	-715.9218750000001	-245.7378997802735	217.6443328857422	-753.8457641601564	-275.0391540527344	192.2084655761719	-797.0904541015627	-390.5852050781251	105.6866683959961	-771.413024902344	-353.4547119140626	135.2731018066407	-850.6423950195315	-446.0693359375001	91.59963226318361	-836.0217895507815	-241.8225860595704	56.43978118896486	-823.7315673828127	-245.8226623535157	57.59194183349611	-780.6199340820315	-289.3071899414063	35.2550163269043	-734.2277221679689	-450.703338623047	762.9285278320314	-679.6962280273439	-453.1873168945314	780.0476684570315	-926.4003906250002	
669	3.34	-214.3167266845704	1433.521118164063	-795.9643554687502	-372.1479797363282	1333.100952148438	-866.839050292969	-332.9796447753907	1368.303833007813	-713.9863281250001	-422.834930419922	1242.196411132813	-804.5808715820315	-569.7431640625001	956.7275390625002	-790.7791137695315	-307.0157165527344	1143.829833984375	-794.520446777344	-314.1935729980469	1205.52001953125	-922.712829589844	-166.0968017578125	1131.706665039063	-1012.371826171875	-140.0433959960938	1147.317626953125	-972.6704711914065	-97.67440032958987	1118.030639648438	-1004.160461425781	-18.51000595092774	1101.997436523438	-988.5777587890627	-41.4657325744629	1032.125610351563	-944.0599365234377	nan	nan	nan	220.2367248535157	1110.537841796875	-884.539489746094	222.5352783203126	1133.264892578125	-780.4222412109377	-331.0292053222657	1207.828979492188	-668.9923095703126	-198.8020324707032	1145.5908203125	-556.3213500976564	-165.2378997802735	1154.91455078125	-590.9642333984376	-130.2208862304688	1129.913696289063	-547.8292846679689	-60.51169586181642	1118.119018554688	-553.0172119140626	-61.06538772583009	1042.666748046875	-570.4329833984376	156.6807556152344	1118.758544921875	-728.3570556640626	177.1067810058594	1128.082153320313	-653.8574829101564	233.9526367187501	1152.290649414063	-751.4540405273439	-603.6793823242189	828.448425292969	-802.2399902343752	-613.5925292968751	799.0628662109377	-830.325134277344	-613.6829833984376	795.539245605469	-775.267272949219	-355.9832458496094	625.2332763671876	-1024.395629882813	-273.0980529785157	609.6769409179689	-1026.255249023438	-252.4868621826172	646.6775512695314	-1000.026245117188	-244.0101013183594	557.7606201171876	-1026.693359375	-167.7249450683594	481.3960266113282	-1019.068786621094	-129.5297546386719	494.319793701172	-897.3545532226565	-51.99649047851564	413.2980346679689	-989.0552368164065	-83.7224807739258	348.0893859863282	-1035.59033203125	-44.57953643798829	363.0939941406251	-1016.962646484375	-7.797133922576906	292.6114501953126	-985.736267089844	-1.673118114471436	129.7112426757813	-1002.149963378906	14.79296779632569	161.1109008789063	-921.263610839844	-45.03321838378907	86.18148040771486	-957.4739990234377	155.5819396972657	135.8678741455078	-915.4414672851565	164.7561187744141	131.8184661865235	-964.354675292969	138.5463256835938	91.31929779052736	-1010.029479980469	-411.4015197753907	591.2886352539064	-623.0511474609376	-344.9999694824219	587.5833740234376	-623.6705322265626	-328.7710266113282	616.4083862304689	-632.7318725585939	-299.2036132812501	517.3397216796876	-630.0842895507814	-205.8746643066407	414.1671447753907	-669.0125732421876	-179.7978973388672	434.9572753906251	-790.4976806640627	-196.2806091308594	288.8709106445313	-765.2288818359376	-272.9866943359376	228.5759582519532	-715.8312377929689	-245.7348327636719	217.551010131836	-753.7831420898439	-274.8895874023438	192.1558532714844	-796.924743652344	-390.6026306152345	105.6530380249024	-771.452819824219	-353.4544067382813	135.2441711425782	-850.6342773437502	-446.0417785644532	91.55892181396486	-835.997985839844	-241.7872619628907	56.46681976318361	-823.6903076171877	-245.8171691894532	57.60128402709962	-780.6143798828127	-289.3107910156251	35.16859817504884	-734.2103271484376	-450.9030151367189	762.1786499023439	-679.7937622070314	-453.5987854003907	779.2800903320315	-926.4088134765627	
670	3.345	-214.0917663574219	1432.415893554688	-795.7832641601565	-371.9130249023438	1332.098754882813	-866.6567382812502	-332.4034118652344	1367.519897460938	-713.7230224609376	-423.0591430664064	1241.132446289063	-804.4688720703127	-569.8164062500001	955.9689941406252	-790.7691650390627	-306.7857971191407	1142.798828125	-794.4683837890627	-314.0441894531251	1204.806640625	-922.6650390625002	-164.951889038086	1130.531860351563	-1012.004821777344	-139.7439575195313	1146.567016601563	-972.5468750000002	-97.54251861572268	1117.45263671875	-1004.089660644531	-18.43076324462891	1101.2783203125	-988.5022583007815	-41.12047195434571	1031.245239257813	-944.1272583007815	nan	nan	nan	220.576644897461	1109.482788085938	-884.3795166015627	222.5377349853516	1132.317138671875	-780.4215087890627	-331.0539245605469	1206.629516601563	-668.8986816406251	-198.7564239501954	1144.398803710938	-556.3557739257814	-165.1527557373047	1153.897827148438	-590.7998657226564	-130.0995483398438	1128.843017578125	-547.7927246093751	-60.41991043090822	1117.166137695313	-552.9500732421876	-60.98902893066408	1041.629516601563	-570.4258422851564	156.7847900390625	1117.766967773438	-728.3458862304689	177.2712554931641	1127.026000976563	-653.7871704101564	234.1272430419922	1151.307983398438	-751.4201660156251	-603.8850708007814	827.7058105468752	-802.1893310546877	-613.8252563476564	798.3791503906252	-830.384460449219	-613.8818969726564	794.7545166015627	-775.3510742187502	-356.2362060546876	624.6790771484376	-1024.6220703125	-273.3468322753907	609.1738281250001	-1026.357421875	-252.7984161376954	646.2018432617189	-1000.254150390625	-244.1234588623047	557.3746948242189	-1026.932373046875	-167.9091491699219	481.1771850585939	-1019.275817871094	-129.4978179931641	493.998504638672	-897.6851196289065	-51.94977951049806	413.0833435058595	-989.384704589844	-83.56919097900392	347.7665710449219	-1035.924560546875	-44.88964080810548	362.9400024414063	-1017.460632324219	-7.651857852935793	292.4412841796876	-986.0086059570315	-1.188209533691406	129.4763336181641	-1002.419372558594	15.25793552398682	160.9832763671875	-921.5106201171877	-44.54893493652344	85.94612884521486	-957.7004394531252	155.8429107666016	136.2491455078125	-916.120544433594	164.9846954345703	131.9684143066407	-964.9177246093752	138.9410552978516	91.27510070800783	-1010.426208496094	-411.6429138183595	590.6640014648439	-622.7984008789064	-345.2053527832032	587.1909179687501	-623.3803710937501	-329.0652465820313	615.9660644531251	-632.6268920898439	-299.3008728027344	516.9722290039064	-629.9519653320314	-205.7741088867188	413.9638977050782	-668.6829223632814	-179.6380004882813	434.7354431152345	-790.125915527344	-196.2981872558594	288.7882995605469	-765.0437011718751	-272.9247436523438	228.4758605957032	-715.6061401367189	-245.742172241211	217.4586181640626	-753.6362915039064	-274.9340820312501	192.0671539306641	-796.6968383789065	-390.6111450195314	105.6120681762696	-771.4277343750002	-353.3556213378907	135.2801666259766	-850.505310058594	-446.094940185547	91.64273071289064	-835.992370605469	-241.7476196289063	56.49326324462892	-823.623229980469	-245.8185577392579	57.60722732543947	-780.571472167969	-289.3365478515626	35.10929489135743	-734.1896362304689	-451.0980529785157	761.4110717773439	-679.8647460937501	-453.9095153808595	778.144470214844	-926.4841918945315	
671	3.35	-213.7419891357422	1431.394165039063	-795.6159667968752	-371.7773437500001	1331.26904296875	-866.5635375976565	-332.4490051269532	1366.080444335938	-713.5953369140626	-422.7339172363282	1240.237548828125	-804.393737792969	-569.8873291015626	955.176208496094	-790.789733886719	-306.6800231933594	1141.838623046875	-794.4090576171877	-313.7958679199219	1203.876220703125	-922.3750000000002	-165.106201171875	1130.002075195313	-1011.860961914063	-139.4764251708985	1145.772827148438	-972.4033813476565	-97.32155609130862	1116.691040039063	-1003.909729003906	-18.11009025573731	1100.464965820313	-988.4133300781252	-40.9536247253418	1030.319213867188	-943.5810546875002	nan	nan	nan	220.6371459960938	1108.742919921875	-884.2608642578127	222.4394683837891	1131.040893554688	-780.564880371094	-330.7655029296876	1205.7060546875	-668.7371826171876	-198.6525878906251	1143.521362304688	-556.1472167968751	-165.0843811035157	1152.800048828125	-590.7503662109376	-129.9427490234375	1127.852172851563	-547.7199707031251	-60.30151367187501	1116.121826171875	-552.7921752929689	-60.85192871093751	1040.583984375	-570.3588256835939	156.4332275390625	1116.52978515625	-728.2782592773439	177.363510131836	1125.980712890625	-653.6274414062501	234.2415924072266	1150.140747070313	-751.2560424804689	-604.1303710937501	826.9210205078127	-802.3088378906252	-614.2375488281251	797.5030517578127	-830.3543701171877	-614.0883178710939	794.0610961914065	-775.4179687500002	-356.5336914062501	624.1760864257814	-1024.74853515625	-273.5208435058594	608.7282104492189	-1026.500732421875	-253.0556640625001	645.6989135742189	-1000.524536132813	-244.2269439697266	556.9121093750001	-1027.129638671875	-167.8616943359375	480.8916320800782	-1019.460815429688	-129.4500274658203	493.6681518554689	-897.9529418945315	-51.84659957885744	412.909393310547	-989.6856079101565	-83.55879974365236	347.4774475097657	-1036.166015625	-44.88742065429688	362.7920837402344	-1017.752990722656	-7.178524971008303	292.1468200683594	-986.0772705078127	-0.468778282403946	129.1924743652344	-1002.648559570313	15.62928771972657	160.919662475586	-921.7583007812502	-44.04576492309571	85.83252716064455	-957.877624511719	156.2719116210938	136.3471069335938	-916.565856933594	165.4130554199219	132.0049896240235	-965.3992919921877	139.2716522216797	91.24048614501955	-1010.783630371094	-411.8804626464845	590.0693969726564	-622.5964965820314	-345.4268798828126	586.8286743164064	-623.1893310546876	-329.3499145507813	615.4797363281251	-632.5236816406251	-299.4224548339844	516.5682373046876	-629.8306884765626	-205.6219482421876	413.7238159179689	-668.4014892578126	-179.4412841796875	434.701141357422	-789.8387451171877	-196.1739349365235	288.6092529296876	-764.7911376953126	-272.8871154785157	228.4293212890626	-715.4148559570314	-245.7362518310547	217.2859954833985	-753.4755249023439	-274.8031311035157	191.9727020263672	-796.4577636718752	-390.6671752929689	105.5723724365235	-771.3555908203127	-353.3405761718751	135.3180084228516	-850.424011230469	-446.0764465332032	91.65945434570314	-835.986999511719	-241.7584075927735	56.5006675720215	-823.608825683594	-245.8605194091797	57.59363937377931	-780.5599365234377	-289.2819519042969	35.11227416992188	-734.1614379882814	-451.4326171875001	760.4680175781251	-680.0187988281251	-454.2789916992189	777.288513183594	-926.5872192382815	
